<svg id="e25f61af-fb3b-4476-83ec-936f12420347" data-name="FB" xmlns="http://www.w3.org/2000/svg" viewBox="0 0 85.95 86.57">
  <defs>
    <style>
      .aa7e6280-ec19-40ca-a89f-0b38cf83370d {
        fill: #fff;
      }
    </style>
  </defs>
  <title>IG</title>
  <g>
    <path class="aa7e6280-ec19-40ca-a89f-0b38cf83370d" d="M67.52,86.57H18.44A18.25,18.25,0,0,1,0,68.55V18A18.25,18.25,0,0,1,18.44,0H67.52A18.25,18.25,0,0,1,86,18V68.55A18.25,18.25,0,0,1,67.52,86.57ZM18.44,7.42A10.82,10.82,0,0,0,7.42,18V68.55a10.82,10.82,0,0,0,11,10.6H67.52a10.82,10.82,0,0,0,11-10.6V18a10.82,10.82,0,0,0-11-10.59Z"/>
    <path class="aa7e6280-ec19-40ca-a89f-0b38cf83370d" d="M43,65.75A22.47,22.47,0,1,1,65.44,43.28,22.49,22.49,0,0,1,43,65.75Zm0-37.51A15,15,0,1,0,58,43.28,15.06,15.06,0,0,0,43,28.24Z"/>
    <path class="aa7e6280-ec19-40ca-a89f-0b38cf83370d" d="M72.35,19.69a5.26,5.26,0,1,1-5.26-5.26A5.26,5.26,0,0,1,72.35,19.69Z"/>
  </g>
</svg>