<svg viewBox="0 0 85.95 86.57" xmlns="http://www.w3.org/2000/svg"><g fill="#fff"><path d="m67.52 86.57h-49.08a18.25 18.25 0 0 1 -18.44-18.02v-50.55a18.25 18.25 0 0 1 18.44-18h49.08a18.25 18.25 0 0 1 18.48 18v50.55a18.25 18.25 0 0 1 -18.48 18.02zm-49.08-79.15a10.82 10.82 0 0 0 -11.02 10.58v50.55a10.82 10.82 0 0 0 11 10.6h49.1a10.82 10.82 0 0 0 11-10.6v-50.55a10.82 10.82 0 0 0 -11-10.59z"/><path d="m43 65.75a22.47 22.47 0 1 1 22.44-22.47 22.49 22.49 0 0 1 -22.44 22.47zm0-37.51a15 15 0 1 0 15 15.04 15.06 15.06 0 0 0 -15-15.04z"/><path d="m72.35 19.69a5.26 5.26 0 1 1 -5.26-5.26 5.26 5.26 0 0 1 5.26 5.26z"/></g></svg>