<svg xmlns="http://www.w3.org/2000/svg" viewBox="0 0 935.8 356.76"><defs><style>.a{fill:#1d7cb5;}.b{fill:#b52897;}.c{fill:#37af70;}.d{fill:#fcd381;}</style></defs><title>Artboard 7</title><polygon class="a" points="274.55 324.73 24.13 247.35 24.13 186.85 274.55 264.23 274.55 324.73"/><polygon class="b" points="173.85 78.36 24.13 32.1 24.13 92.59 173.85 138.86 173.85 78.36"/><polygon class="c" points="173.85 155.74 24.13 109.48 24.13 169.97 173.85 216.24 173.85 155.74"/><path class="d" d="M195.94,147.49V79.05l46.73,48.89V83.41h9.67v68l-46.73-48.77v44.87Z"/><path class="d" d="M314.34,131.92H286.91l-7.14,15.57H269.35l31.71-68.11,30.59,68.11H321.07Zm-3.94-9.09-9.51-21.78-10,21.78Z"/><path class="d" d="M362.27,92.5v55H352.6v-55H337.87V83.41H377V92.5Z"/><path class="d" d="M429.46,92.5H403.77v15.39h24.94V117H403.77V138.4h25.69v9.09H394.1V83.41h35.36Z"/><path class="d" d="M495.06,83.41v55H513.9v9.09H485.39V83.41Z"/><path class="d" d="M572.79,131.92H545.35l-7.14,15.57H527.8l31.71-68.11,30.58,68.11H579.51Zm-3.95-9.09-9.5-21.78-10,21.78Z"/><path class="d" d="M606.6,147.49V79.05l46.74,48.89V83.41H663v68l-46.74-48.77v44.87Z"/><path class="d" d="M704.55,92.5v55h-9.68v-55H680.14V83.41h39.1V92.5Z"/><path class="d" d="M746,83.41v64.08h-9.67V83.41Z"/><path class="d" d="M805.3,92.5H779.61v15.39h24.94V117H779.61V138.4H805.3v9.09H769.94V83.41H805.3Z"/><path class="d" d="M848.21,120.18l19.84,27.31H856.22l-18.31-26.23h-1.74v26.23H826.5V83.41h11.33q12.7,0,18.35,4.77a17.53,17.53,0,0,1,6.22,14,18.19,18.19,0,0,1-3.9,11.7A17.35,17.35,0,0,1,848.21,120.18Zm-12-7.35h3.07q13.74,0,13.74-10.5,0-9.84-13.36-9.83h-3.45Z"/><path class="d" d="M895.84,83.41v64.08h-9.67V83.41Z"/><path class="d" d="M241,191.1l-15.39,30.66-5.82-20.56-10.27,20.91-9-31h4.45l5.5,20.09,10.34-21.1,5.93,20.57,9.61-19.56Z"/><path class="d" d="M244.8,213.59l-3.58,6.92h-4.74L252.74,189l10.15,31.5h-4.55l-2.13-6.92Zm1.89-3.77H255l-3.16-10.45Z"/><path class="d" d="M278.15,208.11l7.39,12.4h-4.61l-7-12.1h-1.58l-1.48,12.1h-4.37l3.62-29.41h5.77a15.75,15.75,0,0,1,4.48.52,6.34,6.34,0,0,1,2.85,1.75,8.34,8.34,0,0,1,2.31,6.09Q285.56,206.3,278.15,208.11Zm-4.15-13-1.14,9.45h2a9.66,9.66,0,0,0,3.29-.42,4.27,4.27,0,0,0,1.94-1.43,5.36,5.36,0,0,0,1.07-3.32,3.9,3.9,0,0,0-1.29-3.25,6.4,6.4,0,0,0-4-1Z"/><path class="d" d="M293.58,191.1h5.94a29.4,29.4,0,0,1,5.18.35,10.24,10.24,0,0,1,3.41,1.23,11.49,11.49,0,0,1,4.53,5,16.27,16.27,0,0,1,1.66,7.41,17.49,17.49,0,0,1-1.87,8,14.69,14.69,0,0,1-2.17,3.21,12.4,12.4,0,0,1-2.84,2.35,12.84,12.84,0,0,1-3.9,1.47,25.07,25.07,0,0,1-2.59.28c-1,.06-2.18.1-3.52.1H290Zm3.85,4.06-2.61,21.29h3.31a17.91,17.91,0,0,0,5.71-.72,7.58,7.58,0,0,0,3.49-2.63,12.8,12.8,0,0,0,2.59-8.21,11.86,11.86,0,0,0-1.16-5.37,7.49,7.49,0,0,0-3.2-3.39,13,13,0,0,0-5.7-1Z"/><path class="d" d="M349.46,191.1l-.49,4.06h-9l-1.94,5.9c.44-.09.86-.15,1.24-.2a10.64,10.64,0,0,1,1.08-.06,8.1,8.1,0,0,1,6.32,2.53,9.9,9.9,0,0,1,2.31,6.93,10.61,10.61,0,0,1-2.86,7.73,10,10,0,0,1-7.5,2.94,11,11,0,0,1-9.81-5.57l3-2.43a12.25,12.25,0,0,0,3.16,3.2,7,7,0,0,0,3.56.89,5.77,5.77,0,0,0,4.49-1.86,7.21,7.21,0,0,0,1.68-5,5.52,5.52,0,0,0-5.92-5.92,13.21,13.21,0,0,0-6.36,2l4.85-15.16Z"/><path class="d" d="M392.52,220.51l3.66-27.88h4.38A19.75,19.75,0,0,1,405,193a5.28,5.28,0,0,1,2.34,1.24,5.89,5.89,0,0,1,1.52,2.15,7.1,7.1,0,0,1,.52,2.76,6.93,6.93,0,0,1-1.16,4.13,6.08,6.08,0,0,1-3.45,2.27,6.84,6.84,0,0,1,3.73,2.44,7,7,0,0,1,1.26,4.3,8.18,8.18,0,0,1-.9,3.74,7.76,7.76,0,0,1-2.49,2.89,7.9,7.9,0,0,1-3.08,1.23,37.14,37.14,0,0,1-6.4.37Zm2.65-2.19h3.46a24.58,24.58,0,0,0,3.49-.18,7.72,7.72,0,0,0,2-.6,5.11,5.11,0,0,0,2.29-2.15,6.65,6.65,0,0,0,.83-3.34,5.75,5.75,0,0,0-.58-2.65,4.26,4.26,0,0,0-1.69-1.8,5.35,5.35,0,0,0-1.93-.67,30.65,30.65,0,0,0-4.26-.19h-2.11Zm1.79-13.7h2.49a24,24,0,0,0,3.17-.15,6.32,6.32,0,0,0,1.76-.49,4.43,4.43,0,0,0,1.94-1.87,5.87,5.87,0,0,0,.71-2.89,4.65,4.65,0,0,0-.49-2.19,4.14,4.14,0,0,0-1.43-1.57,4.37,4.37,0,0,0-1.46-.57,15.31,15.31,0,0,0-2.67-.17h-2.73Z"/><path class="d" d="M419.55,192.63l-2.27,17.16c-.06.46-.11.92-.14,1.35s-.05.86-.05,1.29a6.75,6.75,0,0,0,1.72,4.94,6.43,6.43,0,0,0,4.83,1.77,9.37,9.37,0,0,0,3.95-.79,7.06,7.06,0,0,0,2.83-2.38c1-1.35,1.75-3.93,2.25-7.71.05-.32.08-.54.09-.68l2-15h2.38L435,208.3c0,.24-.07.61-.13,1.1q-.73,5.72-2.44,7.95a9.48,9.48,0,0,1-3.76,3,12.82,12.82,0,0,1-5.21,1,9.09,9.09,0,0,1-6.48-2.18,8,8,0,0,1-2.3-6.09c0-.66,0-1.46.13-2.39s.24-2.19.46-3.78l1.87-14.26Z"/><path class="d" d="M442.67,220.51h-2.38L444,192.63h4a24.24,24.24,0,0,1,5,.35,6.72,6.72,0,0,1,2.54,1.21,6.29,6.29,0,0,1,1.82,2.3,7.21,7.21,0,0,1,.63,3,7.37,7.37,0,0,1-2.37,5.84,9.82,9.82,0,0,1-6.63,2.12l8.61,13h-2.77l-8.51-13h-1.83Zm4.95-25.71h-1.56l-1.41,10.61h2.93a21.23,21.23,0,0,0,3.12-.17,6.56,6.56,0,0,0,1.8-.52,4.94,4.94,0,0,0,2.15-2,6,6,0,0,0,.78-3.08,5.2,5.2,0,0,0-.54-2.42,4.06,4.06,0,0,0-1.54-1.64,5.21,5.21,0,0,0-1.63-.59,14.1,14.1,0,0,0-2.69-.19Z"/><path class="d" d="M461.07,220.51l3.66-27.88h2.38l-3.39,25.69h10.76l-.27,2.19Z"/><path class="d" d="M477.41,220.51l3.72-27.88h2.38l-3.68,27.88Z"/><path class="d" d="M486.94,220.51l3.79-28.63,16.68,23.31,3-22.56h2.31l-3.79,28.62L492.23,198l-3,22.55Z"/><path class="d" d="M532,208.93l.27-2.08h11.8v.08q0,6.65-3.74,10.48t-10.22,3.84a13.44,13.44,0,0,1-9.89-3.74,13.27,13.27,0,0,1-3.76-9.84,16.87,16.87,0,0,1,1.21-6.4,14.37,14.37,0,0,1,3.44-5.1,14.62,14.62,0,0,1,5-3.14,16.91,16.91,0,0,1,6.07-1.07,15.4,15.4,0,0,1,6.75,1.38,14.06,14.06,0,0,1,5.1,4.35l-1.68,1.56a12.84,12.84,0,0,0-4.47-3.91,12.56,12.56,0,0,0-5.77-1.28,12.82,12.82,0,0,0-4.94.95,12.1,12.1,0,0,0-4.11,2.76,13.25,13.25,0,0,0-3,4.51,14.53,14.53,0,0,0-1,5.43,11.23,11.23,0,0,0,3.07,8.22,10.76,10.76,0,0,0,8.07,3.13,11.36,11.36,0,0,0,7.92-2.8,10.08,10.08,0,0,0,3.32-7.33Z"/><path class="d" d="M552,220.51l3.39-25.67h-8l.31-2.21h17.71l-.31,2.21h-7.33l-3.35,25.67Z"/><path class="d" d="M580.41,192q6.29,0,10.06,3.69a13.24,13.24,0,0,1,3.77,9.89,16.26,16.26,0,0,1-1.22,6.27,14.7,14.7,0,0,1-3.5,5.11,14.94,14.94,0,0,1-5.06,3.18,17.18,17.18,0,0,1-6.17,1.11,13.19,13.19,0,0,1-9.79-3.76,13.34,13.34,0,0,1-3.74-9.82,16.87,16.87,0,0,1,1.21-6.4,14.48,14.48,0,0,1,8.38-8.2A17.21,17.21,0,0,1,580.41,192Zm11.3,13.5a10.78,10.78,0,0,0-11.38-11.39,12.94,12.94,0,0,0-4.92.95,11.94,11.94,0,0,0-4.08,2.71,13.59,13.59,0,0,0-3,4.54,14.49,14.49,0,0,0-1,5.4,10.72,10.72,0,0,0,11.31,11.35,13.3,13.3,0,0,0,5-.94,12.26,12.26,0,0,0,4.15-2.76,13.41,13.41,0,0,0,2.94-4.48A14.23,14.23,0,0,0,591.71,205.5Z"/><path class="d" d="M598,220.51l3.79-28.63,16.69,23.31,3-22.56h2.3L620,221.25,603.33,198l-3,22.55Z"/><path class="d" d="M663.59,195.08l-.67,2.57a10.17,10.17,0,0,0-3.79-2.66,12.8,12.8,0,0,0-4.89-.88,13.39,13.39,0,0,0-5,.92,11.53,11.53,0,0,0-4,2.66,13.65,13.65,0,0,0-3,4.56,14.68,14.68,0,0,0-1,5.46,11,11,0,0,0,3.16,8.27,11.64,11.64,0,0,0,8.5,3.08,12.55,12.55,0,0,0,3.8-.64,23.5,23.5,0,0,0,4.35-1.93l-.67,2.93a27.51,27.51,0,0,1-4.26,1.38,17.39,17.39,0,0,1-3.85.45,12.86,12.86,0,0,1-13.58-13.62,16.79,16.79,0,0,1,1.21-6.34,14.72,14.72,0,0,1,3.44-5.12,14.5,14.5,0,0,1,4.94-3.1,16.77,16.77,0,0,1,6.07-1.07,16,16,0,0,1,5.07.76A13.13,13.13,0,0,1,663.59,195.08Z"/><path class="d" d="M665.54,220.51l3.71-27.88h2.38L668,220.51Z"/><path class="d" d="M679.75,220.51l3.39-25.67h-8l.3-2.21h17.71l-.3,2.21h-7.33l-3.35,25.67Z"/><path class="d" d="M699.23,220.51l1.72-13-7.53-14.85H696l6.29,12.58L711,192.63h2.69l-10.3,15-1.72,12.91Z"/><path class="d" d="M750.2,195.08l-.67,2.57a10.14,10.14,0,0,0-3.78-2.66,12.89,12.89,0,0,0-4.9-.88,13.39,13.39,0,0,0-5,.92,11.53,11.53,0,0,0-4,2.66,13.8,13.8,0,0,0-3,4.56,14.67,14.67,0,0,0-1,5.46A11,11,0,0,0,731,216a11.64,11.64,0,0,0,8.5,3.08,12.55,12.55,0,0,0,3.8-.64,23.5,23.5,0,0,0,4.35-1.93l-.67,2.93a27.51,27.51,0,0,1-4.26,1.38,17.33,17.33,0,0,1-3.85.45,12.86,12.86,0,0,1-13.58-13.62,16.79,16.79,0,0,1,1.21-6.34,14.86,14.86,0,0,1,3.44-5.12,14.5,14.5,0,0,1,4.94-3.1,16.77,16.77,0,0,1,6.07-1.07,16,16,0,0,1,5.07.76A13.13,13.13,0,0,1,750.2,195.08Z"/><path class="d" d="M768.17,192q6.3,0,10.07,3.69a13.24,13.24,0,0,1,3.77,9.89,16.26,16.26,0,0,1-1.22,6.27,14.7,14.7,0,0,1-3.5,5.11,15,15,0,0,1-5.06,3.18,17.22,17.22,0,0,1-6.17,1.11,13.19,13.19,0,0,1-9.79-3.76,13.34,13.34,0,0,1-3.74-9.82,16.87,16.87,0,0,1,1.21-6.4,14.4,14.4,0,0,1,8.38-8.2A17.16,17.16,0,0,1,768.17,192Zm11.3,13.5a10.77,10.77,0,0,0-11.37-11.39,12.94,12.94,0,0,0-4.92.95,11.76,11.76,0,0,0-4.08,2.71,13.44,13.44,0,0,0-3,4.54,14.29,14.29,0,0,0-1,5.4,11.19,11.19,0,0,0,3.11,8.23,11.07,11.07,0,0,0,8.19,3.12,13.35,13.35,0,0,0,5-.94,12.36,12.36,0,0,0,4.15-2.76,13.41,13.41,0,0,0,2.94-4.48A14.23,14.23,0,0,0,779.47,205.5Z"/><path class="d" d="M791.61,192.63l-2.27,17.16c-.06.46-.11.92-.14,1.35s-.05.86-.05,1.29a6.76,6.76,0,0,0,1.73,4.94,6.41,6.41,0,0,0,4.82,1.77,9.37,9.37,0,0,0,3.95-.79,7.06,7.06,0,0,0,2.83-2.38c1-1.35,1.76-3.93,2.25-7.71,0-.32.08-.54.1-.68l2-15h2.38l-2.08,15.67c0,.24-.07.61-.13,1.1-.48,3.81-1.3,6.46-2.44,7.95a9.41,9.41,0,0,1-3.76,3,12.78,12.78,0,0,1-5.21,1,9,9,0,0,1-6.47-2.18,7.93,7.93,0,0,1-2.31-6.09c0-.66.05-1.46.14-2.39s.24-2.19.45-3.78l1.87-14.26Z"/><path class="d" d="M812.35,220.51l3.79-28.63,16.68,23.31,3-22.56h2.31l-3.79,28.62L817.65,198l-3,22.55Z"/><path class="d" d="M866.8,195.08l-.67,2.57a10.17,10.17,0,0,0-3.79-2.66,12.8,12.8,0,0,0-4.89-.88,13.39,13.39,0,0,0-5,.92,11.53,11.53,0,0,0-4,2.66,13.65,13.65,0,0,0-3,4.56,14.68,14.68,0,0,0-1,5.46,11,11,0,0,0,3.16,8.27,11.64,11.64,0,0,0,8.5,3.08,12.55,12.55,0,0,0,3.8-.64,23.5,23.5,0,0,0,4.35-1.93l-.67,2.93a27.51,27.51,0,0,1-4.26,1.38,17.39,17.39,0,0,1-3.85.45,12.86,12.86,0,0,1-13.58-13.62,16.79,16.79,0,0,1,1.21-6.34,14.72,14.72,0,0,1,3.44-5.12,14.5,14.5,0,0,1,4.94-3.1,16.77,16.77,0,0,1,6.07-1.07,16,16,0,0,1,5.07.76A13.13,13.13,0,0,1,866.8,195.08Z"/><path class="d" d="M868.75,220.51l3.71-27.88h2.38l-3.67,27.88Z"/><path class="d" d="M878.27,220.51l3.66-27.88h2.38l-3.39,25.69h10.76l-.27,2.19Z"/><rect class="d" x="195.18" y="166.29" width="701.96" height="5.61"/></svg>